<!-- <svg width="24" height="18" viewBox="0 0 24 18" fill="none" xmlns="http://www.w3.org/2000/svg">
<path d="M11.9996 1.872C14.7851 1.872 17.2886 2.8335 18.9746 4.563C20.3619 4.74342 21.6706 5.30994 22.7516 6.198C20.8601 2.223 16.9421 0 11.9996 0C7.12463 0 3.17963 2.22 1.26562 6.183C2.25673 5.37407 3.43901 4.83329 4.69913 4.6125C6.35363 2.808 8.96063 1.872 11.9996 1.872Z" fill="white"/>
<path d="M18.0004 18C16.4396 18.0018 14.9399 17.3935 13.8214 16.305L13.8184 16.302C13.6891 16.2049 13.5504 16.1209 13.4044 16.0515C12.9647 15.8474 12.485 15.7444 12.0004 15.75C11.3794 15.75 10.9069 15.9045 10.5979 16.0515C10.4513 16.1209 10.3121 16.2048 10.1824 16.302L10.1794 16.305C9.47408 16.9897 8.61138 17.4906 7.66713 17.7637C6.72287 18.0369 5.72597 18.0738 4.76409 17.8713C3.80221 17.6689 2.9048 17.2332 2.15078 16.6026C1.39676 15.9719 0.809212 15.1657 0.43981 14.2548C0.0704071 13.3439 -0.0695399 12.3562 0.0322737 11.3785C0.134087 10.4009 0.474543 9.46317 1.02371 8.64791C1.57287 7.83266 2.31392 7.16482 3.18169 6.7031C4.04947 6.24139 5.01739 5.99994 6.00035 6H18.0004C19.5917 6 21.1178 6.63214 22.243 7.75736C23.3682 8.88258 24.0004 10.4087 24.0004 12C24.0004 13.5913 23.3682 15.1174 22.243 16.2426C21.1178 17.3679 19.5917 18 18.0004 18Z" fill="white"/>
</svg> -->
<!-- <svg class="ml-1 h-4 w-4 fill-current" viewBox="0 0 20 20" version="1.1" xmlns="http://www.w3.org/2000/svg"
            xmlns:xlink="http://www.w3.org/1999/xlink">
            <g id="Page-1" stroke="none" stroke-width="1" fill-rule="evenodd">
              <g id="icon-shape">
                <polygon id="Combined-Shape"
                  points="9.29289322 12.9497475 10 13.6568542 15.6568542 8 14.2426407 6.58578644 10 10.8284271 5.75735931 6.58578644 4.34314575 8">
                </polygon>
              </g>
            </g>
          </svg> -->





<!-- linkedIn -->
           <!-- <svg
              className="ml-4 h-6 w-6 fill-current"
              viewBox="0 0 20 20"
              version="1.1"
              xmlns="http://www.w3.org/2000/svg"
              xmlns:xlink="http://www.w3.org/1999/xlink"
              role="img"
            >
              <g stroke="none" stroke-width="1" fill="none" fill-rule="evenodd">
                <g fill="#8d98a1">
                  <path d="M10.7358299,9.05316505 C10.74693,9.03496505 10.7625302,9.01306505 10.7778304,8.99176505 L10.7778304,9.05316505 L10.7358299,9.05316505 Z M16.9563347,16.7413593 L13.9355007,16.7413593 L13.9355007,11.9100805 C13.9355007,10.696181 13.4977552,9.86785022 12.4052981,9.86785022 C11.5695643,9.86785022 11.0734621,10.4266736 10.8556124,10.9662 C10.7748894,11.1588913 10.7548946,11.4283987 10.7548946,11.6975342 L10.7548946,16.7411734 L7.73457208,16.7411734 C7.73457208,16.7411734 7.77409657,8.5583491 7.73457208,7.71146523 L10.7553596,7.71146523 L10.7553596,8.99162555 C11.1563705,8.37649203 11.8729729,7.4990119 13.477156,7.4990119 C15.4654707,7.4990119 16.9563347,8.78884399 16.9563347,11.5636639 L16.9563347,16.7413593 Z M4.55280357,6.47798976 L4.53248332,6.47798976 C3.51912172,6.47798976 2.86222458,5.78497064 2.86222458,4.91734826 C2.86222458,4.03224231 3.53841897,3.35800873 4.57186832,3.35800873 C5.60541067,3.35800873 6.24115058,4.03205632 6.26123833,4.91734826 C6.26123833,5.78515663 5.60564317,6.47798976 4.55280357,6.47798976 Z M3.0415728,16.7413593 L6.06342984,16.7413593 L6.06342984,7.71160472 L3.0415728,7.71160472 L3.0415728,16.7413593 Z M18.5232253,0 L1.4777512,0 C0.661547082,0 0,0.641358883 0,1.43295561 L0,18.5664399 C0,19.3580366 0.661779579,20 1.4777512,20 L18.5232253,20 C19.3391969,20 20,19.3576181 20,18.5664399 L20,1.43295561 C20,0.641591377 19.3391969,0 18.5232253,0 Z"></path>
                </g>
              </g>
            </svg> -->

<!-- facebook -->
            <!-- <svg
              className="ml-4 h-6 w-6 fill-current"
              viewBox="0 0 20 20"
              version="1.1"
              xmlns="http://www.w3.org/2000/svg"
              xmlns:xlink="http://www.w3.org/1999/xlink"
            >
              <g stroke="none" stroke-width="1" fill="none" fill-rule="evenodd">
                <g fill="#8d98a1">
                  <path d="M20,3.33355556 C20,1.582 18.4186667,0 16.6666667,0 L3.33333333,0 C1.58133333,0 0,1.582 0,3.33355556 L0,16.6664444 C0,18.418 1.58133333,20 3.33355556,20 L10,20 L10,12.4444444 L7.55555556,12.4444444 L7.55555556,9.11111111 L10,9.11111111 L10,7.81244444 C10,5.57266667 11.6817778,3.55555556 13.75,3.55555556 L16.4444444,3.55555556 L16.4444444,6.88888889 L13.75,6.88888889 C13.4551111,6.88888889 13.1111111,7.24688889 13.1111111,7.78311111 L13.1111111,9.11111111 L16.4444444,9.11111111 L16.4444444,12.4444444 L13.1111111,12.4444444 L13.1111111,20 L16.6666667,20 C18.4186667,20 20,18.418 20,16.6664444 L20,3.33355556 Z"></path>
                </g> -->
              <!-- </g>
            </svg> -->
<svg viewBox="0 0 1024.00 1024.00" class="icon" version="1.1" xmlns="http://www.w3.org/2000/svg" fill="#000000" stroke="#000000" stroke-width="0.01024"><g id="SVGRepo_bgCarrier" stroke-width="0"></g><g id="SVGRepo_tracerCarrier" stroke-linecap="round" stroke-linejoin="round" stroke="#CCCCCC" stroke-width="2.048"></g><g id="SVGRepo_iconCarrier"><path d="M670.5 471.7c-7.1-3.1-14.2-5.9-21.4-8.5 49.8-40.3 81.6-101.8 81.6-170.6 0-121-98.4-219.4-219.4-219.4s-219.4 98.4-219.4 219.4c0 68.9 31.9 130.5 81.7 170.7C219.4 519.6 109 667.8 109 841.3h73.1c0-181.5 147.7-329.1 329.1-329.1 45.3 0 89.1 9 130.2 26.7l29.1-67.2zM511.3 146.3c80.7 0 146.3 65.6 146.3 146.3S592 438.9 511.3 438.9 365 373.2 365 292.6s65.6-146.3 146.3-146.3zM612.5 636.5c0 10.2 5.6 19.5 14.6 24.2l128 67.6c4 2.1 8.4 3.2 12.8 3.2s8.8-1.1 12.8-3.2l128-67.6c9-4.8 14.6-14.1 14.6-24.2s-5.6-19.5-14.6-24.2l-128-67.7c-8-4.2-17.6-4.2-25.6 0l-128 67.7c-9 4.7-14.6 14-14.6 24.2z m155.4-36.6l69.3 36.6-69.3 36.6-69.3-36.6 69.3-36.6z" fill="#99b8ff"></path><path d="M767.9 763.4l-147-77.7-25.6 48.5 172.6 91.2 171.9-90.8-25.6-48.5z" fill="#99b8ff"></path><path d="M767.9 851.4l-147-77.6-25.6 48.4 172.6 91.3 171.3-90.6-25.6-48.5z" fill="#99b8ff"></path></g></svg>
